# xmcd CD database file generated by Grip 3.0.4
# 
# Track frame offsets:
#       150
#       10324
#       21277
#       33725
#       43901
#       54367
#       64357
#       75865
#       84244
#       94332
#       108191
#       116325
#       124892
#       138451
#       150202
#       162039
#       180794
#       194964
# 
# Disc length: 2831 seconds
# 
# Revision: 5
# Processed by: cddbd v1.5.1PL0 Copyright (c) Steve Scherf et al.
# Submitted via: Grip 3.0.4
# 
DISCID=e10b0d12
DTITLE=Johnny Cash - Essential Johnny Cash
DYEAR=2002
DGENRE=Country
TTITLE0=Hey Porter
TTITLE1=Cry, Cry, Cry
TTITLE2=I Walk The Line
TTITLE3=Get Rhythm
TTITLE4=There You Go
TTITLE5=Ballad Of A Teenage Queen
TTITLE6=Big River
TTITLE7=Guess Things Happen That Way
TTITLE8=All Over Again
TTITLE9=Don't Take Your Guns To Town
TTITLE10=Five Feet High And Rising
TTITLE11=The Rebel - Johnny Yuma
TTITLE12=Tennessee Flat-Top Box
TTITLE13=I Still Miss Someone
TTITLE14=Ring Of Fire
TTITLE15=The Ballad Of Ira Hayes
TTITLE16=Orange Blossom Special
TTITLE17=Were You There (When They Crucified My Lord) (with The CarterFamily)
EXTD=
EXTT0=
EXTT1=
EXTT2=
EXTT3=
EXTT4=
EXTT5=
EXTT6=
EXTT7=
EXTT8=
EXTT9=
EXTT10=
EXTT11=
EXTT12=
EXTT13=
EXTT14=
EXTT15=
EXTT16=
EXTT17=
PLAYORDER=
